# xmcd
#
# Track frame offsets: 
#        150
#        10890
#        22197
#        37481
#        48636
#        64232
#        75983
#        89297
#        100372
#        113108
#        120551
#        133951
#        146116
#        158315
#
# Disc length: 2262 seconds
#
# Revision: 1
# Processed by: cddbd v1.5.2PL0 Copyright (c) Steve Scherf et al.
# Submitted via: ExactAudioCopy v0.95b4
#
DISCID=c208d40e
DTITLE=Mr David Viner - This Boy Don't Care
DYEAR=2004
DGENRE=Blues
TTITLE0=Sick And Tired Of Being On My Own
TTITLE1=You'd Think It'd Get A Little Easier
TTITLE2=Goblin In My Bread
TTITLE3=Nobody's Business
TTITLE4=Don't Take It To Heart
TTITLE5=Lay Me Down
TTITLE6=Seven Years
TTITLE7=My House, My home
TTITLE8=I'm Getting Married In The Spring
TTITLE9=Bird Whistle
TTITLE10=High Horse Blues
TTITLE11=This Boy Don't Care
TTITLE12=Please Think Of Me
TTITLE13=Viner's Outro
EXTD=
EXTT0=
EXTT1=
EXTT2=
EXTT3=
EXTT4=
EXTT5=
EXTT6=
EXTT7=
EXTT8=
EXTT9=
EXTT10=
EXTT11=
EXTT12=
EXTT13=
PLAYORDER=
